<svg xmlns="http://www.w3.org/2000/svg" xmlns:xlink="http://www.w3.org/1999/xlink" version="1.1" x="0px" y="0px" viewBox="0 0 70 87.5" style="enable-background:new 0 0 70 70;" xml:space="preserve"><style type="text/css">
	.st0{stroke:#000000;stroke-width:2;stroke-linecap:round;}
</style><g><g><path d="M46.9499817,33.124939v-9.9899902c0-3.1899414-1.2399902-6.1899414-3.5-8.4499512    c-2.2599487-2.2600098-5.2599487-3.5-8.4499512-3.5c-6.5900269,0-11.960022,5.3599854-11.960022,11.9499512v9.9899902    c-2.3699951,2.8300781-3.6799927,6.3400879-3.6799927,10.0500488c0,8.6199951,7.0200195,15.6400146,15.6400146,15.6400146    s15.6399536-7.0200195,15.6399536-15.6400146C50.6399841,39.4650269,49.3299866,35.9550171,46.9499817,33.124939z     M36.0000305,44.085022v4.3199463c0,0.5500488-0.4500122,1-1,1c-0.5500488,0-1-0.4499512-1-1V44.085022    c-1.8200073-0.4400635-3.1799927-2.0899658-3.1799927-4.0499268c0-2.3000488,1.8799438-4.170166,4.1799927-4.170166    c2.2999878,0,4.1699829,1.8701172,4.1699829,4.170166C39.1700134,41.9950562,37.8200378,43.6449585,36.0000305,44.085022z     M43.9499817,30.3649292c-2.5999756-1.8398438-5.6900024-2.829834-8.9499512-2.829834    c-3.2600098,0-6.3500366,0.9899902-8.960022,2.829834v-7.2299805c0-4.9299316,4.0200195-8.9499512,8.960022-8.9499512    c2.3899536,0,4.6399536,0.9299316,6.3299561,2.6199951c1.6900024,1.7000732,2.6199951,3.9400635,2.6199951,6.3299561V30.3649292z"/></g></g><text x="0" y="85" fill="#000000" font-size="5px" font-weight="bold" font-family="'Helvetica Neue', Helvetica, Arial-Unicode, Arial, Sans-serif">Created by Dinosoft Labs</text><text x="0" y="90" fill="#000000" font-size="5px" font-weight="bold" font-family="'Helvetica Neue', Helvetica, Arial-Unicode, Arial, Sans-serif">from the Noun Project</text></svg>