<svg xmlns="http://www.w3.org/2000/svg" xmlns:xlink="http://www.w3.org/1999/xlink" version="1.1" x="0px" y="0px" viewBox="0 0 100 125" enable-background="new 0 0 100 100" xml:space="preserve"><path d="M94.643,49.203C89.545,44.647,71.026,22.143,50,22.143S10.455,44.647,5.357,49.203c-0.477,0.425-0.477,1.169,0,1.594  C10.455,55.353,28.036,77.857,50,77.857s39.545-22.505,44.643-27.061C95.119,50.372,95.119,49.628,94.643,49.203 M50,66.071  c-8.876,0-16.071-7.196-16.071-16.071S41.124,33.929,50,33.929c8.875,0,16.071,7.196,16.071,16.071S58.875,66.071,50,66.071"/><path d="M50,42.5c-4.143,0-7.5,3.358-7.5,7.5s3.357,7.5,7.5,7.5c4.142,0,7.5-3.358,7.5-7.5S54.142,42.5,50,42.5"/><text x="0" y="115" fill="#000000" font-size="5px" font-weight="bold" font-family="'Helvetica Neue', Helvetica, Arial-Unicode, Arial, Sans-serif">Created by Vicons Design</text><text x="0" y="120" fill="#000000" font-size="5px" font-weight="bold" font-family="'Helvetica Neue', Helvetica, Arial-Unicode, Arial, Sans-serif">from the Noun Project</text></svg>