<svg xmlns="http://www.w3.org/2000/svg" xmlns:xlink="http://www.w3.org/1999/xlink" version="1.1" x="0px" y="0px" viewBox="0 0 90 112.5" enable-background="new 0 0 90 90" xml:space="preserve"><g><path d="M71.4,61.2H18.1c-2.5,0-4.5-2-4.5-4.5V26.9c0-2.5,2-4.5,4.5-4.5h53.2c2.5,0,4.5,2,4.5,4.5v29.8   C75.8,59.2,73.8,61.2,71.4,61.2z M72.7,55V28.7c0-1.8-1.5-3.3-3.3-3.3H20c-1.8,0-3.3,1.5-3.3,3.3V55c0,1.8,1.5,3.3,3.3,3.3h49.5   C71.3,58.3,72.7,56.8,72.7,55z"/><path d="M44.6,67.5h37.7c2.4,0,2.3-3.8,2.3-3.8H52v0.6c0,0.5-0.4,0.8-0.8,0.8h-6.6h0.3h-6.6c-0.5,0-0.8-0.4-0.8-0.8v-0.6H4.8   c0,0-0.1,3.8,2.3,3.8h37.7"/></g><text x="0" y="105" fill="#000000" font-size="5px" font-weight="bold" font-family="'Helvetica Neue', Helvetica, Arial-Unicode, Arial, Sans-serif">Created by Madeleine Bennett</text><text x="0" y="110" fill="#000000" font-size="5px" font-weight="bold" font-family="'Helvetica Neue', Helvetica, Arial-Unicode, Arial, Sans-serif">from the Noun Project</text></svg>