<svg xmlns:x="http://ns.adobe.com/Extensibility/1.0/" xmlns:i="http://ns.adobe.com/AdobeIllustrator/10.0/" xmlns:graph="http://ns.adobe.com/Graphs/1.0/" xmlns="http://www.w3.org/2000/svg" xmlns:xlink="http://www.w3.org/1999/xlink" version="1.1" x="0px" y="0px" viewBox="0 0 64 80" enable-background="new 0 0 64 64" xml:space="preserve"><metadata><sfw xmlns="http://ns.adobe.com/SaveForWeb/1.0/"><slices/><sliceSourceBounds y="-8160" x="-8165" width="16389" height="16384" bottomLeftOrigin="true"/><optimizationSettings><targetSettings targetSettingsID="0" fileFormat="PNG24Format"><PNG24Format transparency="true" filtered="false" interlaced="false" noMatteColor="false" matteColor="#FFFFFF"/></targetSettings></optimizationSettings></sfw></metadata><g><g><path d="M50.461,19.808c-0.025-0.061-0.062-0.116-0.108-0.162L38.354,7.647c-0.046-0.046-0.101-0.083-0.162-0.108    C38.132,7.514,38.066,7.5,38,7.5H14c-0.276,0-0.5,0.224-0.5,0.5v48c0,0.276,0.224,0.5,0.5,0.5h36c0.276,0,0.5-0.224,0.5-0.5V20    C50.5,19.933,50.486,19.868,50.461,19.808z M38.5,9.207L48.793,19.5H38.5V9.207z M14.5,55.5v-47h23V20c0,0.276,0.224,0.5,0.5,0.5    h11.5v35H14.5z"/><path d="M22,20.5h8c0.276,0,0.5-0.224,0.5-0.5s-0.224-0.5-0.5-0.5h-8c-0.276,0-0.5,0.224-0.5,0.5S21.724,20.5,22,20.5z"/><path d="M42,27.5H22c-0.276,0-0.5,0.224-0.5,0.5s0.224,0.5,0.5,0.5h20c0.276,0,0.5-0.224,0.5-0.5S42.276,27.5,42,27.5z"/><path d="M42,35.5H22c-0.276,0-0.5,0.224-0.5,0.5s0.224,0.5,0.5,0.5h20c0.276,0,0.5-0.224,0.5-0.5S42.276,35.5,42,35.5z"/><path d="M42,43.5H22c-0.276,0-0.5,0.224-0.5,0.5s0.224,0.5,0.5,0.5h20c0.276,0,0.5-0.224,0.5-0.5S42.276,43.5,42,43.5z"/></g></g><text x="0" y="79" fill="#000000" font-size="5px" font-weight="bold" font-family="'Helvetica Neue', Helvetica, Arial-Unicode, Arial, Sans-serif">Created by Ralf Schmitzer</text><text x="0" y="84" fill="#000000" font-size="5px" font-weight="bold" font-family="'Helvetica Neue', Helvetica, Arial-Unicode, Arial, Sans-serif">from the Noun Project</text></svg>